<svg xmlns="http://www.w3.org/2000/svg" fill="none" viewBox="0 0 217 52"><g clip-path="url(#a)"><path fill="#193B39" d="M105.778 25.458v-4.445h-5.238l-.025 21.85h5.24l.022-12.766h3.713v-4.641h-3.713l.001.002zm-14.974-.34c4.776 0 7.693 2.877 7.693 7.517v10.23h-5.239V32.83c0-1.863-.895-2.907-2.454-2.907-1.56 0-2.455 1.044-2.455 2.907v10.033H83.11v-10.23c0-4.64 2.92-7.516 7.694-7.516zm26.777 0c2.356 0 4.178.851 5.24 2.189 1.029-1.34 2.853-2.19 5.207-2.19 4.377 0 7.098 2.779 7.098 7.615v10.13h-5.241V32.536c0-1.667-.895-2.616-2.221-2.616-1.325 0-2.22.947-2.22 2.616v10.326h-5.239V32.536c0-1.667-.862-2.616-2.223-2.616-1.361 0-2.221.947-2.221 2.616v10.326h-5.239v-10.13c0-4.836 2.72-7.614 7.063-7.614h-.004zm71.952 0c4.777 0 7.694 2.877 7.694 7.517v10.23h-5.239V32.83c0-1.863-.895-2.907-2.455-2.907-1.559 0-2.453 1.044-2.453 2.907v10.033h-5.238v-10.23c0-4.64 2.919-7.516 7.691-7.516z"/><path fill="#193B39" fill-rule="evenodd" d="M156.928 17.997h5.24v14.137l.006-.007 4.661-6.569h5.832l-5.953 8.384 6.341 8.919h-5.817l-5.063-7.108h-.001l-.006-.01v7.118h-5.24V17.997z" clip-rule="evenodd"/><path fill="#193B39" d="M60.039 25.544h2.255v4.642h-1.759c-1.063 0-1.525.458-1.525 1.502v11.176h-5.24V31.82c0-4.348 2.355-6.275 6.269-6.275zm-7.755 2.432H39.462v5.057h6.967a7.6 7.6 0 01-.092.235c-1.55 3.745-5.884 5.542-9.684 4.017-3.798-1.527-5.624-5.799-4.075-9.543 1.55-3.744 5.886-5.542 9.684-4.017.525.211 1.01.476 1.457.784l3.093-4.353c-.77-.53-1.608-.987-2.514-1.352-6.555-2.633-14.038.47-16.71 6.933-2.673 6.463.476 13.836 7.035 16.469 6.558 2.633 14.041-.469 16.714-6.933.645-1.56.947-3.17.947-4.758l.004-.005v-2.533l-.004-.001zm19.68-2.809c-5.037 0-9.123 4.024-9.123 8.99 0 4.965 4.084 8.989 9.123 8.989a9.187 9.187 0 004.478-1.16v.875h4.645v-8.706c0-4.964-4.084-8.99-9.123-8.99v.002zm0 13.383c-2.462 0-4.456-1.966-4.456-4.392s1.994-4.392 4.456-4.392c2.462 0 4.456 1.966 4.456 4.392s-1.994 4.392-4.456 4.392zm73.811-13.38c-5.039 0-9.123 4.023-9.123 8.988s4.083 8.99 9.123 8.99a9.184 9.184 0 004.478-1.16v.874h4.646v-8.706c0-4.963-4.083-8.988-9.124-8.988v.001zm0 13.382c-2.462 0-4.458-1.966-4.458-4.392s1.996-4.392 4.458-4.392 4.457 1.966 4.457 4.392-1.996 4.392-4.457 4.392zm71.223 4.208v-8.488l.002-.108c0-4.964-4.082-8.99-9.123-8.99-5.041 0-9.123 4.024-9.123 8.99 0 4.965 4.082 8.989 9.123 8.989a9.194 9.194 0 004.476-1.158v.765h-.02c0 2.426-1.996 4.392-4.456 4.392a4.494 4.494 0 01-2.557-.795l-2.676 3.766a9.214 9.214 0 005.233 1.626c4.967 0 9.06-4 9.118-8.881l.002-.108h.001zm-9.119-4.204c-2.46 0-4.457-1.966-4.457-4.392s1.997-4.392 4.457-4.392 4.458 1.966 4.458 4.392-1.996 4.392-4.458 4.392zm-28.076-13.013h-5.241v17.32h5.241v-17.32zm-2.623-2.54c1.651 0 2.989-1.316 2.989-2.939 0-1.622-1.338-2.939-2.989-2.939-1.65 0-2.987 1.317-2.987 2.94 0 1.622 1.338 2.938 2.987 2.938z"/><path fill="#A7B4B3" d="M60.974 17.775h.003c0 1.032-.848 1.869-1.897 1.869-1.048 0-1.897-.837-1.897-1.87v-8.58H53.77v8.653c.04 2.838 2.42 5.161 5.308 5.161 2.889 0 5.27-2.323 5.31-5.161V9.193h-3.414v8.582zM77.668 9.19l-3.752-.001-4.582 6.451V9.194h-3.415v13.573h3.415V16.31l4.582 6.456 3.574-.004-4.736-6.659 4.914-6.911z"/><path fill="#00C767" d="M15.11 14.287c.699-4.06-2.092-7.906-6.235-8.59C4.733 5.01.805 7.745.107 11.804c-.698 4.06 2.092 7.906 6.235 8.59 4.143.686 8.07-2.05 8.768-6.108z"/><path fill="#005FF6" d="M23.43 16.54c.346-1.98-1.033-3.854-3.078-4.188-2.046-.334-3.984 1-4.33 2.978-.346 1.978 1.033 3.854 3.079 4.188 2.045.334 3.984-1 4.33-2.979z"/><path fill="#7900EB" d="M32.442 13.651c.39-2.284-1.163-4.446-3.463-4.833-2.303-.385-4.484 1.154-4.871 3.436-.39 2.284 1.163 4.446 3.463 4.833 2.301.387 4.484-1.154 4.871-3.436z"/><path fill="#E33258" d="M26.086 21.401c.182-1.116-.542-2.173-1.616-2.362-1.074-.189-2.091.564-2.273 1.68-.182 1.116.542 2.173 1.616 2.362 1.074.189 2.091-.565 2.273-1.68z"/><path fill="#51D0DB" d="M25.47 6.52c.527-3.044-1.575-5.927-4.695-6.44-3.121-.514-6.076 1.538-6.603 4.581-.527 3.044 1.575 5.928 4.695 6.443 3.121.514 6.076-1.537 6.603-4.581V6.52z"/><path fill="#FF8D00" d="M23.366 29.32c.77-4.466-2.3-8.696-6.85-9.45-4.553-.752-8.865 2.255-9.634 6.72-.77 4.467 2.3 8.697 6.85 9.45 4.553.753 8.867-2.254 9.634-6.72z"/></g><defs><clipPath id="a"><path fill="#fff" d="M0 0h217v51.749H0z"/></clipPath></defs></svg>